<svg width="165" height="101" viewBox="0 0 165 101" fill="none" xmlns="http://www.w3.org/2000/svg">
<g clip-path="url(#clip0_304_1196)">
<path d="M1.98584 44.0488H23.6257V65.3873H17.9018V48.661H7.70973V65.3873H1.98584V44.0488ZM25.873 65.3873L36.3277 44.0488H42.5189L52.9738 65.3873H47.1915L45.2348 61.2422H33.787L31.8304 65.3873H25.873ZM39.4817 49.128L35.8313 56.8928H43.1614L39.4817 49.128ZM68.3141 58.7902H60.9548V65.3873H55.2309V44.0488H68.3141C72.6362 44.0488 76.6371 45.3332 76.6371 51.5217C76.6371 57.7393 72.5486 58.7902 68.3141 58.7902ZM71.0008 51.5217C71.0008 49.274 69.8619 48.7485 68.4893 48.7485H60.9548V54.2656H68.4893C69.8619 54.2656 71.0008 53.7402 71.0008 51.5217Z" fill="white"/>
<path d="M96.9557 36.625V51.7166L107.527 36.625H113.28V57.9634H107.995V43.2805L97.3937 57.9634H91.6406V36.625H96.9557ZM133.167 36.625H138.89V57.9634H133.167V49.6441H122.975V57.9634H117.251V36.625H122.975V44.9444H133.167V36.625ZM148.585 41.2371V57.9634H142.861V36.625H161.785V41.2371H148.585Z" fill="white"/>
<g filter="url(#filter0_d_304_1196)">
<path fill-rule="evenodd" clip-rule="evenodd" d="M111.768 35.0694C111.758 35.0489 111.748 35.0285 111.738 35.0084C108.253 27.8254 99.6027 24.8265 92.4166 28.31C85.2307 31.7936 82.2304 40.4402 85.7155 47.6231C85.7254 47.6433 85.7354 47.6637 85.7453 47.6841L79.1762 50.8686C79.1663 50.8481 79.1564 50.828 79.1465 50.8076C73.9018 39.9982 78.4167 26.986 89.2307 21.7438C100.045 16.5016 113.063 21.0145 118.307 31.8236C118.317 31.8441 118.327 31.8645 118.337 31.8849L111.768 35.0694Z" fill="#B63940"/>
</g>
<g filter="url(#filter1_d_304_1196)">
<path fill-rule="evenodd" clip-rule="evenodd" d="M80.4852 54.2687C80.4946 54.2877 80.5039 54.3066 80.5133 54.3259C83.5061 60.4942 80.819 68.8071 73.2486 72.477C65.6779 76.1469 57.4837 73.109 54.4909 66.9407C54.4815 66.9217 54.4722 66.9024 54.4631 66.8832L47.8938 70.0679C47.9031 70.0869 47.9125 70.1061 47.9215 70.1251C52.8549 80.2928 65.6204 84.2855 76.4344 79.0432C87.2482 73.8008 92.0157 61.3089 87.0823 51.1415C87.0733 51.1222 87.0639 51.1033 87.0546 51.084L80.4852 54.2687Z" fill="#B63940"/>
</g>
<g filter="url(#filter2_d_304_1196)">
<path d="M96.9955 65.3267L94.1254 69.1823H91.9539V62.9133H93.7913V66.7688L96.8437 62.9133H98.7875V69.1823H96.9955V65.3267ZM107.556 66.0553C107.556 65.9036 107.526 65.7468 107.465 65.5848C107.415 65.4228 107.329 65.2762 107.207 65.1446C107.096 65.0129 106.954 64.9067 106.782 64.8258C106.62 64.745 106.433 64.7044 106.22 64.7044H104.838V67.3911H106.22C106.433 67.3911 106.62 67.3505 106.782 67.2697C106.954 67.1786 107.096 67.0724 107.207 66.9509C107.318 66.8193 107.405 66.6777 107.465 66.5259C107.526 66.3639 107.556 66.2071 107.556 66.0553ZM103.092 62.9284H106.22C106.767 62.9284 107.238 63.0245 107.632 63.2168C108.037 63.4092 108.366 63.657 108.619 63.9606C108.883 64.2642 109.075 64.5981 109.197 64.9624C109.328 65.3267 109.394 65.6808 109.394 66.025C109.394 66.3692 109.328 66.7282 109.197 67.1027C109.075 67.467 108.883 67.8059 108.619 68.1197C108.356 68.4335 108.027 68.6916 107.632 68.8939C107.238 69.0862 106.767 69.1773 106.22 69.1671H104.838V71.3832H103.092V62.9284ZM116.868 69.2278H113.74C113.193 69.2278 112.718 69.1318 112.313 68.9394C111.918 68.747 111.589 68.4992 111.325 68.1956C111.072 67.892 110.88 67.5581 110.748 67.1938C110.627 66.8295 110.566 66.4754 110.566 66.1312C110.566 65.7871 110.627 65.433 110.748 65.0687C110.88 64.6942 111.077 64.3503 111.341 64.0365C111.604 63.7227 111.933 63.4699 112.328 63.2776C112.723 63.0753 113.193 62.9789 113.74 62.9892H116.868V69.2278ZM112.404 66.1009C112.404 66.2527 112.429 66.4094 112.48 66.5714C112.54 66.7334 112.626 66.88 112.738 67.0116C112.859 67.1433 113.001 67.2495 113.163 67.3304C113.335 67.4113 113.527 67.4518 113.74 67.4518H115.122V64.7651H113.74C113.527 64.7651 113.335 64.8107 113.163 64.9017C113.001 64.9826 112.864 65.0888 112.753 65.2205C112.642 65.3419 112.555 65.4835 112.495 65.6455C112.434 65.7973 112.404 65.9491 112.404 66.1009ZM123.614 69.2278H121.214C120.668 69.2278 120.192 69.1318 119.787 68.9394C119.392 68.747 119.063 68.4992 118.8 68.1956C118.547 67.892 118.354 67.5581 118.223 67.1938C118.101 66.8295 118.041 66.4754 118.041 66.1312C118.041 65.7871 118.101 65.433 118.223 65.0687C118.354 64.6942 118.552 64.3503 118.815 64.0365C119.078 63.7227 119.407 63.4699 119.802 63.2776C120.197 63.0753 120.668 62.9789 121.214 62.9892H123.614V64.7651H121.214C121.002 64.7651 120.809 64.8107 120.637 64.9017C120.475 64.9826 120.339 65.0888 120.227 65.2205C120.116 65.3419 120.03 65.4835 119.969 65.6455C119.908 65.7973 119.878 65.9491 119.878 66.1009C119.878 66.2527 119.903 66.4094 119.954 66.5714C120.015 66.7334 120.101 66.88 120.212 67.0116C120.334 67.1433 120.475 67.2495 120.637 67.3304C120.809 67.4113 121.002 67.4518 121.214 67.4518H123.614V69.2278ZM130.42 69.2278H128.021C127.474 69.2278 126.999 69.1318 126.594 68.9394C126.199 68.747 125.87 68.4992 125.607 68.1956C125.354 67.892 125.161 67.5581 125.029 67.1938C124.908 66.8295 124.847 66.4754 124.847 66.1312C124.847 65.7871 124.908 65.433 125.029 65.0687C125.161 64.6942 125.359 64.3503 125.622 64.0365C125.885 63.7227 126.214 63.4699 126.609 63.2776C127.004 63.0753 127.474 62.9789 128.021 62.9892H130.42V64.7651H128.021C127.809 64.7651 127.616 64.8107 127.444 64.9017C127.282 64.9826 127.146 65.0888 127.034 65.2205C126.923 65.3419 126.837 65.4835 126.776 65.6455C126.715 65.7973 126.685 65.9491 126.685 66.1009C126.685 66.2527 126.71 66.4094 126.761 66.5714C126.821 66.7334 126.908 66.88 127.019 67.0116C127.14 67.1433 127.282 67.2495 127.444 67.3304C127.616 67.4113 127.809 67.4518 128.021 67.4518H130.42V69.2278ZM131.776 62.9588H133.537V64.416H135.648C137.228 64.4361 138.017 65.2205 138.017 66.7688C138.017 68.3778 137.197 69.1823 135.557 69.1823H131.776V62.9588ZM133.537 67.634H135.36C135.957 67.634 136.256 67.3456 136.256 66.7688C136.256 66.2022 135.957 65.929 135.36 65.9491H133.537V67.634ZM139.217 69.1823V62.9588H140.963V69.1823H139.217ZM147.145 69.1823V64.6133H145.581V66.1161C145.581 66.6625 145.5 67.138 145.338 67.5429C145.186 67.9376 144.979 68.2666 144.716 68.5296C144.462 68.7826 144.169 68.9747 143.835 69.1064C143.511 69.2278 143.177 69.2885 142.833 69.2885C142.61 69.2885 142.387 69.2582 142.164 69.1974V67.1938C142.326 67.3657 142.539 67.4518 142.802 67.4518C143.116 67.4518 143.359 67.3406 143.531 67.1179C143.713 66.8852 143.804 66.5513 143.804 66.1161V62.8829H148.937V69.1823H147.145ZM151.731 66.7081V69.1823H149.939V62.8677H151.731V65.3419C152.166 65.2611 152.48 65.1294 152.672 64.9473C152.875 64.7651 153.022 64.5678 153.113 64.3553C153.204 64.1428 153.275 63.9303 153.325 63.7178C153.376 63.5052 153.472 63.3231 153.614 63.1713C153.766 63.0195 153.994 62.9133 154.297 62.8525C154.601 62.7918 155.051 62.812 155.649 62.9133L155.634 64.4312C155.36 64.3705 155.142 64.3553 154.981 64.3856C154.819 64.416 154.692 64.4718 154.601 64.5526C154.51 64.6335 154.434 64.7397 154.373 64.8714C154.312 64.9928 154.246 65.1192 154.176 65.2509C154.105 65.3825 154.014 65.5139 153.902 65.6455C153.791 65.7669 153.634 65.8732 153.432 65.9643L155.861 69.1823H153.751L151.974 66.6929L151.731 66.7081ZM162.381 69.2278H159.253C158.706 69.2278 158.23 69.1318 157.826 68.9394C157.431 68.747 157.102 68.4992 156.839 68.1956C156.585 67.892 156.393 67.5581 156.262 67.1938C156.14 66.8295 156.079 66.4754 156.079 66.1312C156.079 65.7871 156.14 65.433 156.262 65.0687C156.393 64.6942 156.59 64.3503 156.854 64.0365C157.117 63.7227 157.446 63.4699 157.841 63.2776C158.236 63.0753 158.706 62.9789 159.253 62.9892H162.381V69.2278ZM157.917 66.1009C157.917 66.2527 157.942 66.4094 157.993 66.5714C158.053 66.7334 158.139 66.88 158.251 67.0116C158.372 67.1433 158.514 67.2495 158.676 67.3304C158.848 67.4113 159.041 67.4518 159.253 67.4518H160.635V64.7651H159.253C159.041 64.7651 158.848 64.8107 158.676 64.9017C158.514 64.9826 158.377 65.0888 158.266 65.2205C158.154 65.3419 158.069 65.4835 158.008 65.6455C157.947 65.7973 157.917 65.9491 157.917 66.1009Z" fill="#8586A5"/>
</g>
</g>
<defs>
<filter id="filter0_d_304_1196" x="68.9602" y="19.5586" width="57.3765" height="47.3101" filterUnits="userSpaceOnUse" color-interpolation-filters="sRGB">
<feFlood flood-opacity="0" result="BackgroundImageFix"/>
<feColorMatrix in="SourceAlpha" type="matrix" values="0 0 0 0 0 0 0 0 0 0 0 0 0 0 0 0 0 0 127 0" result="hardAlpha"/>
<feOffset dy="8"/>
<feGaussianBlur stdDeviation="4"/>
<feComposite in2="hardAlpha" operator="out"/>
<feColorMatrix type="matrix" values="0 0 0 0 0 0 0 0 0 0 0 0 0 0 0 0 0 0 0.75 0"/>
<feBlend mode="normal" in2="BackgroundImageFix" result="effect1_dropShadow_304_1196"/>
<feBlend mode="normal" in="SourceGraphic" in2="effect1_dropShadow_304_1196" result="shape"/>
</filter>
<filter id="filter1_d_304_1196" x="47.8938" y="43.084" width="57.135" height="46.2666" filterUnits="userSpaceOnUse" color-interpolation-filters="sRGB">
<feFlood flood-opacity="0" result="BackgroundImageFix"/>
<feColorMatrix in="SourceAlpha" type="matrix" values="0 0 0 0 0 0 0 0 0 0 0 0 0 0 0 0 0 0 127 0" result="hardAlpha"/>
<feOffset dx="8"/>
<feGaussianBlur stdDeviation="4"/>
<feComposite in2="hardAlpha" operator="out"/>
<feColorMatrix type="matrix" values="0 0 0 0 0 0 0 0 0 0 0 0 0 0 0 0 0 0 0.75 0"/>
<feBlend mode="normal" in2="BackgroundImageFix" result="effect1_dropShadow_304_1196"/>
<feBlend mode="normal" in="SourceGraphic" in2="effect1_dropShadow_304_1196" result="shape"/>
</filter>
<filter id="filter2_d_304_1196" x="83.9539" y="58.8184" width="86.4275" height="24.5649" filterUnits="userSpaceOnUse" color-interpolation-filters="sRGB">
<feFlood flood-opacity="0" result="BackgroundImageFix"/>
<feColorMatrix in="SourceAlpha" type="matrix" values="0 0 0 0 0 0 0 0 0 0 0 0 0 0 0 0 0 0 127 0" result="hardAlpha"/>
<feOffset dy="4"/>
<feGaussianBlur stdDeviation="4"/>
<feComposite in2="hardAlpha" operator="out"/>
<feColorMatrix type="matrix" values="0 0 0 0 0 0 0 0 0 0 0 0 0 0 0 0 0 0 1 0"/>
<feBlend mode="normal" in2="BackgroundImageFix" result="effect1_dropShadow_304_1196"/>
<feBlend mode="normal" in="SourceGraphic" in2="effect1_dropShadow_304_1196" result="shape"/>
</filter>
<clipPath id="clip0_304_1196">
<rect width="165" height="101" fill="white"/>
</clipPath>
</defs>
</svg>
