<?xml version="1.0" standalone="no"?>
<!DOCTYPE svg PUBLIC "-//W3C//DTD SVG 20010904//EN"
 "http://www.w3.org/TR/2001/REC-SVG-20010904/DTD/svg10.dtd">
<svg version="1.0" xmlns="http://www.w3.org/2000/svg"
 width="256.000000pt" height="256.000000pt" viewBox="0 0 256.000000 256.000000"
 preserveAspectRatio="xMidYMid meet">

<g transform="translate(0.000000,256.000000) scale(0.100000,-0.100000)"
fill="currentColor" stroke="none">
<path d="M221 2425 c-49 -28 -62 -42 -91 -97 -20 -37 -20 -55 -18 -970 l3
-933 32 -68 c42 -89 121 -168 210 -210 l68 -32 855 0 855 0 68 32 c89 42 168
121 210 210 l32 68 0 732 0 731 -30 44 c-17 23 -51 54 -75 68 l-45 25 -908 5
-909 5 -24 28 c-44 51 -28 135 33 166 15 7 129 11 352 11 l331 0 0 23 c-1 32
-34 100 -61 126 -13 13 -41 31 -61 42 -35 18 -62 19 -410 19 l-373 0 -44 -25z
m784 -1371 c41 -19 69 -73 60 -114 -8 -38 -50 -78 -89 -85 -17 -4 -134 -5
-259 -3 l-229 3 -29 33 c-49 55 -31 145 35 172 11 5 124 9 249 9 189 1 235 -2
262 -15z m561 -448 c49 -49 45 -114 -10 -158 -19 -16 -64 -18 -544 -18 l-524
0 -29 29 c-49 50 -36 135 26 169 14 8 179 11 533 12 l514 0 34 -34z"/>
</g>
</svg>
