<svg width="21" height="19" viewBox="0 0 21 19" fill="none" xmlns="http://www.w3.org/2000/svg">
<path d="M1.25618 7.97633L2.16814 8.38661H2.16814L1.25618 7.97633ZM19.438 10.3707L18.5261 9.96038L19.438 10.3707ZM1.25618 10.3707L0.344221 10.781H0.344221L1.25618 10.3707ZM19.438 7.97632L18.5261 8.38661L19.438 7.97632ZM16.3227 2.8196C15.862 2.51508 15.2416 2.64174 14.9371 3.10249C14.6326 3.56323 14.7592 4.1836 15.22 4.48812L16.3227 2.8196ZM5.51649 13.8866C5.05404 13.5847 4.43439 13.7149 4.13248 14.1773C3.83056 14.6398 3.9607 15.2594 4.42315 15.5613L5.51649 13.8866ZM1.54148 12.832C1.86867 13.2769 2.4946 13.3724 2.93953 13.0452C3.38447 12.718 3.47991 12.0921 3.15272 11.6471L1.54148 12.832ZM12.144 3.20523C12.6848 3.31738 13.2141 2.96991 13.3263 2.42913C13.4384 1.88835 13.091 1.35905 12.5502 1.2469L12.144 3.20523ZM12.4684 11.3408L11.7538 10.6413L12.4684 11.3408ZM19.0617 1.69948C19.4481 1.30479 19.4413 0.671662 19.0466 0.285349C18.6519 -0.100964 18.0188 -0.0941721 17.6324 0.300519L19.0617 1.69948ZM1.63244 16.6475C1.24613 17.0422 1.25292 17.6753 1.64761 18.0616C2.0423 18.448 2.67543 18.4412 3.06174 18.0465L1.63244 16.6475ZM10.3471 1.02169C5.89631 1.02169 2.07696 3.71459 0.34422 7.56604L2.16814 8.38661C3.59761 5.20924 6.73023 3.02169 10.3471 3.02169V1.02169ZM10.3471 17.3253C14.7979 17.3253 18.6172 14.6324 20.35 10.7809L18.5261 9.96038C17.0966 13.1378 13.964 15.3253 10.3471 15.3253V17.3253ZM0.344221 7.56604C-0.11474 8.5862 -0.11474 9.7608 0.344221 10.781L2.16814 9.96039C1.94395 9.46208 1.94395 8.88491 2.16814 8.38661L0.344221 7.56604ZM18.5261 8.38661C18.7502 8.88491 18.7502 9.46208 18.5261 9.96038L20.35 10.7809C20.8089 9.76079 20.8089 8.5862 20.35 7.56604L18.5261 8.38661ZM20.35 7.56604C19.4752 5.62163 18.0711 3.97511 16.3227 2.8196L15.22 4.48812C16.6513 5.43413 17.806 6.78608 18.5261 8.38661L20.35 7.56604ZM4.42315 15.5613C6.13254 16.6773 8.16654 17.3253 10.3471 17.3253V15.3253C8.56885 15.3253 6.91268 14.7981 5.51649 13.8866L4.42315 15.5613ZM0.344221 10.781C0.672242 11.5101 1.07462 12.1971 1.54148 12.832L3.15272 11.6471C2.76889 11.1252 2.43796 10.5601 2.16814 9.96039L0.344221 10.781ZM12.5502 1.2469C11.8376 1.09911 11.1007 1.02169 10.3471 1.02169V3.02169C10.9634 3.02169 11.5642 3.08497 12.144 3.20523L12.5502 1.2469ZM7.51113 12.0403C9.07489 13.638 11.6193 13.638 13.1831 12.0403L11.7538 10.6413C10.9744 11.4376 9.71982 11.4376 8.94043 10.6413L7.51113 12.0403ZM13.1831 12.0403C14.7351 10.4546 14.7351 7.89239 13.1831 6.30669L11.7538 7.70565C12.5449 8.51391 12.5449 9.83307 11.7538 10.6413L13.1831 12.0403ZM17.6324 0.300519L1.63244 16.6475L3.06174 18.0465L19.0617 1.69948L17.6324 0.300519Z" fill="currentColor" fill-opacity="0.7"/>
</svg>
