<?xml version="1.0" standalone="no"?>
<!DOCTYPE svg PUBLIC "-//W3C//DTD SVG 20010904//EN"
 "http://www.w3.org/TR/2001/REC-SVG-20010904/DTD/svg10.dtd">
<svg version="1.0" xmlns="http://www.w3.org/2000/svg"
 width="512.000000pt" height="512.000000pt" viewBox="0 0 512.000000 512.000000"
 preserveAspectRatio="xMidYMid meet">

<g transform="translate(0.000000,512.000000) scale(0.100000,-0.100000)"
fill="currentColor" stroke="none">
<path d="M3099 4085 c-344 -49 -591 -188 -655 -366 -12 -36 -15 -105 -17 -376
-1 -182 -5 -334 -8 -337 -3 -3 -30 4 -60 15 -151 59 -300 87 -494 96 -450 19
-847 -128 -953 -354 l-27 -58 0 -635 0 -635 29 -60 c111 -227 501 -371 951
-352 327 14 586 100 729 242 70 70 99 132 104 223 2 39 7 72 11 72 3 0 49 -15
102 -34 357 -128 842 -109 1156 44 124 61 209 137 251 227 l27 58 0 915 0 915
-27 58 c-71 152 -272 270 -554 328 -132 26 -429 34 -565 14z m543 -294 c125
-29 233 -76 284 -125 33 -32 42 -47 37 -64 -8 -32 -57 -70 -138 -108 -264
-122 -725 -122 -981 1 -85 41 -134 84 -134 117 0 65 172 151 375 189 136 25
427 20 557 -10z m323 -738 c-7 -40 -50 -77 -140 -119 -267 -127 -724 -124
-990 5 -122 60 -129 71 -133 198 l-4 106 24 -6 c12 -3 63 -19 111 -36 151 -53
296 -74 502 -74 234 -1 425 33 585 101 l45 19 3 -81 c2 -45 0 -95 -3 -113z
m-1955 -228 c112 -17 214 -46 291 -86 163 -82 159 -144 -16 -225 -268 -124
-718 -125 -980 0 -80 37 -130 76 -138 106 -18 68 185 171 401 204 117 19 325
19 442 1z m1955 -332 c-15 -83 -215 -173 -450 -202 -298 -36 -634 26 -772 143
l-33 28 0 110 c0 101 2 110 18 104 9 -3 55 -19 102 -35 314 -109 735 -105
1045 11 l90 33 3 -80 c2 -44 0 -94 -3 -112z m-2632 -287 c310 -94 717 -82
1011 28 38 14 70 26 72 26 2 0 4 -49 4 -109 l0 -109 -32 -28 c-185 -156 -676
-203 -996 -95 -100 34 -167 69 -203 107 -22 23 -24 35 -27 135 l-4 109 46 -20
c26 -11 84 -31 129 -44z m1497 -125 c306 -106 727 -105 1030 4 41 15 83 29 93
32 15 5 17 -4 17 -95 0 -98 -1 -102 -30 -135 -30 -34 -118 -83 -200 -110 -148
-49 -406 -70 -587 -47 -169 21 -332 79 -412 145 l-31 27 0 110 c0 101 2 110
18 104 9 -3 55 -19 102 -35z m-1549 -420 c309 -107 719 -107 1029 1 47 16 93
32 103 35 18 5 19 -1 15 -100 -4 -127 -11 -138 -133 -198 -136 -66 -301 -99
-503 -99 -262 0 -525 75 -607 172 -23 27 -25 37 -25 130 0 91 2 100 18 95 9
-3 56 -19 103 -36z"/>
</g>
</svg>
