<?xml version="1.0" standalone="no"?>
<!DOCTYPE svg PUBLIC "-//W3C//DTD SVG 20010904//EN"
 "http://www.w3.org/TR/2001/REC-SVG-20010904/DTD/svg10.dtd">
<svg version="1.0" xmlns="http://www.w3.org/2000/svg"
 width="256.000000pt" height="256.000000pt" viewBox="0 0 256.000000 256.000000"
 preserveAspectRatio="xMidYMid meet">

<g transform="translate(0.000000,256.000000) scale(0.100000,-0.100000)"
fill="currentColor" stroke="none">
<path d="M1148 2345 c-456 -72 -824 -443 -893 -902 -8 -54 -15 -104 -15 -110
0 -8 -12 -13 -28 -13 -30 0 -52 -16 -52 -37 0 -8 41 -74 90 -148 65 -97 96
-135 110 -135 14 0 45 38 110 135 49 74 90 140 90 148 0 21 -22 37 -53 37
l-29 0 7 53 c47 375 328 671 699 736 33 6 80 11 106 11 25 0 51 5 58 12 8 8
12 47 12 108 0 61 -4 100 -12 108 -15 15 -88 14 -200 -3z m-708 -1110 c0 -10
-73 -115 -80 -115 -7 0 -80 105 -80 115 0 3 36 5 80 5 44 0 80 -2 80 -5z"/>
<path d="M1775 2283 c-22 -1 -77 -5 -123 -9 -119 -8 -119 -10 -31 -186 87
-173 90 -177 133 -131 l25 27 41 -29 c58 -40 179 -172 219 -238 128 -215 156
-483 74 -712 -14 -38 -36 -91 -49 -117 -13 -26 -21 -54 -18 -62 7 -19 163
-108 183 -104 21 4 84 125 116 223 142 435 -13 927 -377 1196 -51 38 -67 56
-62 68 15 36 16 52 4 66 -12 15 -38 16 -135 8z m-10 -155 c-21 -35 -39 -65
-40 -67 -5 -4 -65 115 -65 128 0 11 133 20 138 9 2 -4 -13 -36 -33 -70z"/>
<path d="M1153 1865 c-101 -27 -203 -91 -203 -127 0 -26 -62 -88 -88 -88 -38
0 -110 -121 -133 -226 -10 -42 -9 -55 5 -82 20 -40 20 -84 0 -124 -14 -27 -15
-40 -5 -82 23 -105 95 -226 133 -226 26 0 88 -62 88 -88 0 -39 124 -111 227
-132 43 -9 57 -8 82 4 38 20 84 20 122 0 26 -13 39 -14 82 -3 110 26 227 92
227 129 0 28 48 79 83 88 44 11 90 82 123 189 26 81 26 86 10 119 -20 44 -20
86 0 125 13 26 14 39 3 82 -26 113 -92 227 -131 227 -26 0 -88 62 -88 88 0 39
-124 110 -230 133 -39 8 -54 7 -79 -5 -37 -20 -88 -20 -121 -1 -31 17 -41 17
-107 0z m303 -295 c62 -31 123 -91 154 -155 35 -72 35 -198 0 -270 -31 -64
-91 -124 -155 -155 -72 -35 -199 -36 -270 -1 -178 88 -238 304 -130 468 38 57
105 109 169 129 61 20 172 12 232 -16z"/>
<path d="M465 832 c-44 -26 -81 -56 -83 -65 -6 -30 77 -146 173 -243 192 -195
424 -300 707 -320 153 -11 305 16 472 83 l89 35 21 -27 c39 -48 54 -33 133
125 40 80 73 148 73 152 0 4 -7 13 -15 21 -10 11 -50 17 -142 22 -70 3 -140 8
-154 11 -34 6 -63 -21 -54 -50 14 -46 11 -50 -60 -77 -265 -103 -561 -67 -790
96 -74 53 -169 151 -220 228 -21 31 -45 57 -54 57 -9 -1 -52 -22 -96 -48z
m1463 -301 c11 -6 7 -21 -17 -70 -17 -33 -33 -61 -35 -61 -5 0 -76 126 -76
134 0 9 113 7 128 -3z"/>
</g>
</svg>
