<svg xmlns="http://www.w3.org/2000/svg" version="1.1" width="75px" height="75px" style="shape-rendering:geometricPrecision; text-rendering:geometricPrecision; image-rendering:optimizeQuality; fill-rule:evenodd; clip-rule:evenodd" xmlns:xlink="http://www.w3.org/1999/xlink">
<g><path style="opacity:0.808" fill="#fefffe" d="M 33.5,4.5 C 35.5,4.5 37.5,4.5 39.5,4.5C 39.7771,7.44753 39.4438,10.2809 38.5,13C 25.66,13.8387 17.66,20.5054 14.5,33C 14.9452,34.4469 15.6119,35.7803 16.5,37C 11.1436,48.5094 6.81027,48.0094 3.5,35.5C 4.5,35.5 5.5,35.5 6.5,35.5C 8.06309,18.6082 17.0631,8.27492 33.5,4.5 Z M 8.5,39.5 C 9.25057,38.4265 10.2506,38.2599 11.5,39C 10.6477,40.7284 9.64767,40.895 8.5,39.5 Z"/></g>
<g><path style="opacity:0.807" fill="#fefffe" d="M 49.5,6.5 C 51.7925,6.24358 53.9592,6.57692 56,7.5C 56.6172,8.44915 56.4506,9.28248 55.5,10C 69.2896,20.0382 73.4562,33.2049 68,49.5C 65.331,54.4111 62.1643,54.5778 58.5,50C 64.9827,37.4315 62.816,26.5981 52,17.5C 50.6667,18.8333 49.3333,18.8333 48,17.5C 46.1319,14.3949 44.9652,11.0615 44.5,7.5C 46.4147,7.78448 48.0813,7.45115 49.5,6.5 Z M 49.5,10.5 C 52.0009,10.5109 52.1676,11.1776 50,12.5C 49.5357,11.9056 49.369,11.2389 49.5,10.5 Z"/></g>
<g><path style="opacity:0.854" fill="#fefffe" d="M 33.5,18.5 C 36.0267,19.5171 38.5267,19.5171 41,18.5C 43.245,19.1371 45.4117,19.9704 47.5,21C 49,23.8333 51.1667,26 54,27.5C 55.0296,29.5883 55.8629,31.755 56.5,34C 55.1667,36 55.1667,38 56.5,40C 55.8629,42.245 55.0296,44.4117 54,46.5C 51.3315,47.7474 49.4981,49.7474 48.5,52.5C 34.4383,58.7523 24.7716,54.5856 19.5,40C 19.2421,29.694 23.9088,22.5273 33.5,18.5 Z M 34.5,28.5 C 41.6027,27.2018 45.6027,30.0351 46.5,37C 45.602,44.1251 41.602,46.7917 34.5,45C 27.8685,39.4229 27.8685,33.9229 34.5,28.5 Z"/></g>
<g><path style="opacity:0.795" fill="#fefffe" d="M 13.5,48.5 C 14.8734,48.3433 16.2068,48.51 17.5,49C 25.1419,60.2137 35.3085,63.3804 48,58.5C 48.4828,57.552 48.6495,56.552 48.5,55.5C 59.9524,53.91 62.2858,57.7433 55.5,67C 48.3455,68.2692 41.0122,68.9358 33.5,69C 22.9396,67.3988 15.2729,61.8988 10.5,52.5C 10.7867,50.5567 11.7867,49.2233 13.5,48.5 Z"/></g>
</svg>