<svg width="22" height="25" viewBox="0 0 22 25" fill="currentColor" xmlns="http://www.w3.org/2000/svg">
<path d="M6.33342 8.66667C5.78113 8.66667 5.33342 9.11438 5.33342 9.66667C5.33342 10.219 5.78113 10.6667 6.33342 10.6667V8.66667ZM12.1667 10.6667C12.719 10.6667 13.1667 10.219 13.1667 9.66667C13.1667 9.11438 12.719 8.66667 12.1667 8.66667V10.6667ZM6.33342 13.3333C5.78113 13.3333 5.33342 13.781 5.33342 14.3333C5.33342 14.8856 5.78113 15.3333 6.33342 15.3333V13.3333ZM12.1667 15.3333C12.719 15.3333 13.1667 14.8856 13.1667 14.3333C13.1667 13.781 12.719 13.3333 12.1667 13.3333V15.3333ZM6.33342 18C5.78113 18 5.33342 18.4477 5.33342 19C5.33342 19.5523 5.78113 20 6.33342 20V18ZM12.1667 20C12.719 20 13.1667 19.5523 13.1667 19C13.1667 18.4477 12.719 18 12.1667 18V20ZM2.94077 23.4123L3.39476 22.5213L2.94077 23.4123ZM1.92107 22.3926L2.81207 21.9387L1.92107 22.3926ZM16.5791 22.3926L15.6881 21.9387L16.5791 22.3926ZM15.5594 23.4123L15.1054 22.5213L15.5594 23.4123ZM15.5594 5.25432L15.1054 6.14533L15.5594 5.25432ZM16.5791 6.27402L15.6881 6.72801L16.5791 6.27402ZM2.94077 5.25432L3.39476 6.14533L2.94077 5.25432ZM1.92107 6.27402L2.81207 6.72801L1.92107 6.27402ZM6.33347 0.5C5.78119 0.5 5.33347 0.947715 5.33347 1.5C5.33347 2.05228 5.78119 2.5 6.33347 2.5V0.5ZM19.3334 21.3333C19.3334 21.8856 19.7811 22.3333 20.3334 22.3333C20.8857 22.3333 21.3334 21.8856 21.3334 21.3333H19.3334ZM19.0594 1.75432L19.5134 0.863312L19.0594 1.75432ZM20.0791 2.77402L19.1881 3.22801V3.22801L20.0791 2.77402ZM6.33342 10.6667H12.1667V8.66667H6.33342V10.6667ZM6.33342 15.3333H12.1667V13.3333H6.33342V15.3333ZM6.33342 20H12.1667V18H6.33342V20ZM5.40008 6H13.1001V4H5.40008V6ZM15.8334 8.73333V19.9333H17.8334V8.73333H15.8334ZM13.1001 22.6667H5.40008V24.6667H13.1001V22.6667ZM2.66675 19.9333V8.73333H0.666748V19.9333H2.66675ZM5.40008 22.6667C4.73019 22.6667 4.28791 22.6659 3.94898 22.6382C3.62174 22.6115 3.47986 22.5647 3.39476 22.5213L2.48678 24.3034C2.90081 24.5143 3.33519 24.5947 3.78612 24.6316C4.22538 24.6674 4.76319 24.6667 5.40008 24.6667V22.6667ZM0.666748 19.9333C0.666748 20.5702 0.66597 21.108 0.701859 21.5473C0.738701 21.9982 0.8191 22.4326 1.03006 22.8466L2.81207 21.9387C2.76871 21.8536 2.72195 21.7117 2.69522 21.3844C2.66753 21.0455 2.66675 20.6032 2.66675 19.9333H0.666748ZM3.39476 22.5213C3.14388 22.3935 2.9399 22.1895 2.81207 21.9387L1.03006 22.8466C1.34964 23.4738 1.85957 23.9838 2.48678 24.3034L3.39476 22.5213ZM15.8334 19.9333C15.8334 20.6032 15.8326 21.0455 15.8049 21.3844C15.7782 21.7117 15.7314 21.8536 15.6881 21.9387L17.4701 22.8466C17.6811 22.4326 17.7615 21.9982 17.7983 21.5473C17.8342 21.108 17.8334 20.5702 17.8334 19.9333H15.8334ZM13.1001 24.6667C13.737 24.6667 14.2748 24.6674 14.714 24.6316C15.165 24.5947 15.5994 24.5143 16.0134 24.3034L15.1054 22.5213C15.0203 22.5647 14.8784 22.6115 14.5512 22.6382C14.2123 22.6659 13.77 22.6667 13.1001 22.6667V24.6667ZM15.6881 21.9387C15.5603 22.1895 15.3563 22.3935 15.1054 22.5213L16.0134 24.3034C16.6406 23.9838 17.1505 23.4738 17.4701 22.8466L15.6881 21.9387ZM13.1001 6C13.77 6 14.2123 6.00078 14.5512 6.02847C14.8784 6.05521 15.0203 6.10197 15.1054 6.14533L16.0134 4.36331C15.5994 4.15235 15.165 4.07195 14.714 4.03511C14.2748 3.99922 13.737 4 13.1001 4V6ZM17.8334 8.73333C17.8334 8.09644 17.8342 7.55863 17.7983 7.11937C17.7615 6.66844 17.6811 6.23406 17.4701 5.82003L15.6881 6.72801C15.7314 6.81311 15.7782 6.95499 15.8049 7.28224C15.8326 7.62116 15.8334 8.06344 15.8334 8.73333H17.8334ZM15.1054 6.14533C15.3563 6.27316 15.5603 6.47713 15.6881 6.72801L17.4701 5.82003C17.1505 5.19283 16.6406 4.68289 16.0134 4.36331L15.1054 6.14533ZM5.40008 4C4.76319 4 4.22538 3.99922 3.78612 4.03511C3.33519 4.07195 2.90081 4.15235 2.48678 4.36331L3.39476 6.14533C3.47986 6.10197 3.62174 6.05521 3.94898 6.02847C4.28791 6.00078 4.73019 6 5.40008 6V4ZM2.66675 8.73333C2.66675 8.06344 2.66753 7.62116 2.69522 7.28224C2.72195 6.95499 2.76871 6.81311 2.81207 6.72801L1.03006 5.82003C0.8191 6.23406 0.738701 6.66844 0.701859 7.11937C0.66597 7.55863 0.666748 8.09644 0.666748 8.73333H2.66675ZM2.48678 4.36331C1.85957 4.68289 1.34964 5.19283 1.03006 5.82003L2.81207 6.72801C2.9399 6.47713 3.14388 6.27316 3.39476 6.14533L2.48678 4.36331ZM6.33347 2.5H16.6001V0.5H6.33347V2.5ZM19.3334 5.23333V21.3333H21.3334V5.23333H19.3334ZM16.6001 2.5C17.27 2.5 17.7123 2.50078 18.0512 2.52847C18.3784 2.55521 18.5203 2.60197 18.6054 2.64532L19.5134 0.863312C19.0994 0.652352 18.665 0.571953 18.214 0.535111C17.7748 0.499222 17.237 0.5 16.6001 0.5V2.5ZM21.3334 5.23333C21.3334 4.59644 21.3342 4.05863 21.2983 3.61937C21.2615 3.16844 21.1811 2.73406 20.9701 2.32003L19.1881 3.22801C19.2314 3.31311 19.2782 3.45499 19.3049 3.78224C19.3326 4.12116 19.3334 4.56344 19.3334 5.23333H21.3334ZM18.6054 2.64532C18.8563 2.77316 19.0603 2.97713 19.1881 3.22801L20.9701 2.32003C20.6505 1.69282 20.1406 1.18289 19.5134 0.863312L18.6054 2.64532Z" fill="currentColor"/>
</svg>
