<svg width="24" height="24" viewBox="0 0 24 24" fill="none" xmlns="http://www.w3.org/2000/svg">
<g id="document/double">
<path id="Icon" d="M8 9C7.44772 9 7 9.44772 7 10C7 10.5523 7.44772 11 8 11V9ZM13 11C13.5523 11 14 10.5523 14 10C14 9.44772 13.5523 9 13 9V11ZM8 13C7.44772 13 7 13.4477 7 14C7 14.5523 7.44772 15 8 15V13ZM13 15C13.5523 15 14 14.5523 14 14C14 13.4477 13.5523 13 13 13V15ZM8 17C7.44772 17 7 17.4477 7 18C7 18.5523 7.44772 19 8 19V17ZM13 19C13.5523 19 14 18.5523 14 18C14 17.4477 13.5523 17 13 17V19ZM5.09202 21.782L5.54601 20.891L5.09202 21.782ZM4.21799 20.908L5.10899 20.454L4.21799 20.908ZM16.782 20.908L15.891 20.454L16.782 20.908ZM15.908 21.782L15.454 20.891L15.908 21.782ZM15.908 6.21799L15.454 7.10899L15.908 6.21799ZM16.782 7.09202L15.891 7.54601L16.782 7.09202ZM5.09202 6.21799L5.54601 7.10899L5.09202 6.21799ZM4.21799 7.09202L5.10899 7.54601L4.21799 7.09202ZM8.00005 2C7.44776 2 7.00005 2.44772 7.00005 3C7.00005 3.55228 7.44776 4 8.00005 4V2ZM19 20C19 20.5523 19.4477 21 20 21C20.5523 21 21 20.5523 21 20H19ZM18.908 3.21799L19.362 2.32698L18.908 3.21799ZM19.782 4.09202L18.891 4.54601V4.54601L19.782 4.09202ZM8 11H13V9H8V11ZM8 15H13V13H8V15ZM8 19H13V17H8V19ZM7.2 7H13.8V5H7.2V7ZM16 9.2V18.8H18V9.2H16ZM13.8 21H7.2V23H13.8V21ZM5 18.8V9.2H3V18.8H5ZM7.2 21C6.62345 21 6.25117 20.9992 5.96784 20.9761C5.69617 20.9539 5.59545 20.9162 5.54601 20.891L4.63803 22.673C5.01641 22.8658 5.40963 22.9371 5.80497 22.9694C6.18864 23.0008 6.65645 23 7.2 23V21ZM3 18.8C3 19.3436 2.99922 19.8114 3.03057 20.195C3.06287 20.5904 3.13419 20.9836 3.32698 21.362L5.10899 20.454C5.0838 20.4045 5.04612 20.3038 5.02393 20.0322C5.00078 19.7488 5 19.3766 5 18.8H3ZM5.54601 20.891C5.35785 20.7951 5.20487 20.6422 5.10899 20.454L3.32698 21.362C3.6146 21.9265 4.07354 22.3854 4.63803 22.673L5.54601 20.891ZM16 18.8C16 19.3766 15.9992 19.7488 15.9761 20.0322C15.9539 20.3038 15.9162 20.4045 15.891 20.454L17.673 21.362C17.8658 20.9836 17.9371 20.5904 17.9694 20.195C18.0008 19.8114 18 19.3436 18 18.8H16ZM13.8 23C14.3436 23 14.8114 23.0008 15.195 22.9694C15.5904 22.9371 15.9836 22.8658 16.362 22.673L15.454 20.891C15.4045 20.9162 15.3038 20.9539 15.0322 20.9761C14.7488 20.9992 14.3766 21 13.8 21V23ZM15.891 20.454C15.7951 20.6422 15.6422 20.7951 15.454 20.891L16.362 22.673C16.9265 22.3854 17.3854 21.9265 17.673 21.362L15.891 20.454ZM13.8 7C14.3766 7 14.7488 7.00078 15.0322 7.02393C15.3038 7.04612 15.4045 7.0838 15.454 7.10899L16.362 5.32698C15.9836 5.13419 15.5904 5.06287 15.195 5.03057C14.8114 4.99922 14.3436 5 13.8 5V7ZM18 9.2C18 8.65645 18.0008 8.18864 17.9694 7.80497C17.9371 7.40963 17.8658 7.01641 17.673 6.63803L15.891 7.54601C15.9162 7.59545 15.9539 7.69617 15.9761 7.96784C15.9992 8.25117 16 8.62345 16 9.2H18ZM15.454 7.10899C15.6422 7.20487 15.7951 7.35785 15.891 7.54601L17.673 6.63803C17.3854 6.07354 16.9265 5.6146 16.362 5.32698L15.454 7.10899ZM7.2 5C6.65645 5 6.18864 4.99922 5.80497 5.03057C5.40963 5.06287 5.01641 5.13419 4.63803 5.32698L5.54601 7.10899C5.59545 7.0838 5.69617 7.04612 5.96784 7.02393C6.25117 7.00078 6.62345 7 7.2 7V5ZM5 9.2C5 8.62345 5.00078 8.25117 5.02393 7.96784C5.04612 7.69617 5.0838 7.59545 5.10899 7.54601L3.32698 6.63803C3.13419 7.01641 3.06287 7.40963 3.03057 7.80497C2.99922 8.18864 3 8.65645 3 9.2H5ZM4.63803 5.32698C4.07354 5.6146 3.6146 6.07354 3.32698 6.63803L5.10899 7.54601C5.20487 7.35785 5.35785 7.20487 5.54601 7.10899L4.63803 5.32698ZM8.00005 4H16.8V2H8.00005V4ZM19 6.2V20H21V6.2H19ZM16.8 4C17.3766 4 17.7488 4.00078 18.0322 4.02393C18.3038 4.04612 18.4045 4.0838 18.454 4.10899L19.362 2.32698C18.9836 2.13419 18.5904 2.06287 18.195 2.03057C17.8114 1.99922 17.3436 2 16.8 2V4ZM21 6.2C21 5.65645 21.0008 5.18864 20.9694 4.80497C20.9371 4.40963 20.8658 4.01641 20.673 3.63803L18.891 4.54601C18.9162 4.59545 18.9539 4.69617 18.9761 4.96784C18.9992 5.25117 19 5.62345 19 6.2H21ZM18.454 4.10899C18.6422 4.20487 18.7951 4.35785 18.891 4.54601L20.673 3.63803C20.3854 3.07354 19.9265 2.6146 19.362 2.32698L18.454 4.10899Z" fill="currentColor"/>
</g>
</svg>
