<?xml version="1.0" standalone="no"?>
<!DOCTYPE svg PUBLIC "-//W3C//DTD SVG 20010904//EN"
 "http://www.w3.org/TR/2001/REC-SVG-20010904/DTD/svg10.dtd">
<svg version="1.0" xmlns="http://www.w3.org/2000/svg"
 width="256.000000pt" height="256.000000pt" viewBox="0 0 256.000000 256.000000"
 preserveAspectRatio="xMidYMid meet">

<g transform="translate(0.000000,256.000000) scale(0.100000,-0.100000)"
fill="currentColor" stroke="none">
<path d="M1575 2285 c-104 -18 -416 -72 -692 -118 -438 -74 -508 -89 -553
-113 -63 -34 -105 -80 -139 -154 l-26 -55 0 -645 c0 -641 0 -645 22 -692 27
-60 94 -127 158 -158 l50 -25 880 0 880 0 53 24 c68 31 144 113 169 183 17 49
18 95 18 588 0 493 -1 539 -18 588 -25 70 -101 152 -169 183 l-53 24 -698 5
c-677 5 -699 6 -713 24 -19 27 -18 60 4 79 17 16 80 17 700 17 430 0 682 4
682 10 0 5 -9 34 -21 64 -41 111 -159 195 -283 202 -39 2 -130 -9 -251 -31z
m328 -1019 c103 -43 128 -177 48 -257 -65 -65 -157 -65 -222 0 -124 123 13
325 174 257z"/>
</g>
</svg>
