<?xml version="1.0" standalone="no"?>
<!DOCTYPE svg PUBLIC "-//W3C//DTD SVG 20010904//EN"
 "http://www.w3.org/TR/2001/REC-SVG-20010904/DTD/svg10.dtd">
<svg version="1.0" xmlns="http://www.w3.org/2000/svg"
 width="256.000000pt" height="256.000000pt" viewBox="0 0 256.000000 256.000000"
 preserveAspectRatio="xMidYMid meet">

<g transform="translate(0.000000,256.000000) scale(0.100000,-0.100000)"
fill="currentColor" stroke="none">
<path d="M1183 2222 c-109 -39 -178 -112 -210 -221 -29 -102 4 -228 82 -306
122 -121 328 -121 450 0 121 122 121 328 0 450 -82 81 -219 114 -322 77z"/>
<path d="M474 2106 c-193 -90 -203 -367 -16 -469 178 -97 392 28 392 227 0
194 -201 323 -376 242z"/>
<path d="M1870 2109 c-179 -81 -216 -317 -69 -442 199 -171 499 23 426 274
-44 150 -217 232 -357 168z"/>
<path d="M355 1471 c-50 -23 -99 -74 -121 -126 -23 -51 -32 -325 -15 -436 31
-200 167 -338 363 -369 38 -6 80 -8 95 -5 16 4 37 8 49 10 21 5 21 5 -5 77
-24 70 -25 84 -29 352 -5 341 3 395 74 494 l16 22 -193 0 c-168 0 -199 -3
-234 -19z"/>
<path d="M933 1465 c-57 -29 -96 -74 -118 -136 -21 -60 -21 -547 0 -637 41
-171 175 -309 344 -354 36 -9 78 -17 94 -17 l27 -1 -34 68 c-51 101 -69 180
-70 302 0 126 18 201 76 320 76 156 238 292 411 346 31 10 57 21 57 24 0 19
-46 61 -92 84 l-52 26 -296 0 -296 0 -51 -25z"/>
<path d="M1811 1441 l30 -49 72 -6 c141 -14 280 -66 372 -140 69 -56 69 -56
61 8 -12 106 -60 179 -141 217 -35 16 -66 19 -232 19 l-192 0 30 -49z"/>
<path d="M1740 1264 c-260 -56 -460 -303 -460 -569 0 -266 195 -509 458 -571
89 -21 234 -14 319 16 75 26 167 84 223 140 176 176 220 450 107 679 -47 97
-161 210 -258 256 -130 62 -257 78 -389 49z m158 -210 c21 -14 22 -22 22 -160
l0 -144 138 0 c108 0 142 -3 160 -16 26 -18 28 -50 5 -76 -14 -16 -33 -18
-160 -18 l-143 0 0 -142 c0 -153 -8 -178 -56 -178 -44 0 -54 32 -54 182 l0
138 -144 0 c-138 0 -146 1 -160 22 -21 30 -20 44 4 68 18 18 33 20 160 20
l140 0 0 140 c0 127 2 142 20 160 24 24 38 25 68 4z"/>
</g>
</svg>
