<?xml version="1.0" standalone="no"?>
<!DOCTYPE svg PUBLIC "-//W3C//DTD SVG 20010904//EN"
 "http://www.w3.org/TR/2001/REC-SVG-20010904/DTD/svg10.dtd">
<svg version="1.0" xmlns="http://www.w3.org/2000/svg"
 width="256.000000pt" height="256.000000pt" viewBox="0 0 256.000000 256.000000"
 preserveAspectRatio="xMidYMid meet">

<g transform="translate(0.000000,256.000000) scale(0.100000,-0.100000)"
fill="currentColor" stroke="none">
<path d="M522 2169 c-67 -11 -123 -40 -171 -88 -43 -43 -82 -118 -85 -162 -1
-29 5 -33 443 -265 l443 -235 442 234 441 233 -1 36 c-2 83 -79 178 -183 227
l-56 26 -610 2 c-335 0 -634 -3 -663 -8z"/>
<path d="M2178 1364 c-3 -479 -4 -490 -26 -549 -47 -127 -144 -226 -270 -277
-57 -23 -58 -23 -681 -28 l-624 -5 38 -34 c22 -19 64 -46 95 -60 l55 -26 520
0 c466 0 527 2 584 18 163 45 302 158 371 301 59 123 62 153 58 596 l-3 395
-29 52 c-15 28 -41 64 -57 79 l-28 27 -3 -489z"/>
<path d="M262 1303 c3 -435 3 -438 26 -481 35 -66 88 -119 150 -149 l57 -28
655 0 655 0 52 24 c62 28 136 103 166 169 21 46 22 60 25 475 2 235 1 427 -2
427 -2 0 -201 -103 -440 -230 -240 -126 -444 -230 -453 -230 -12 0 -730 371
-886 457 -4 3 -6 -193 -5 -434z"/>
</g>
</svg>
