<?xml version="1.0" standalone="no"?>
<!DOCTYPE svg PUBLIC "-//W3C//DTD SVG 20010904//EN"
 "http://www.w3.org/TR/2001/REC-SVG-20010904/DTD/svg10.dtd">
<svg version="1.0" xmlns="http://www.w3.org/2000/svg"
 width="256.000000pt" height="256.000000pt" viewBox="0 0 256.000000 256.000000"
 preserveAspectRatio="xMidYMid meet">

<g transform="translate(0.000000,256.000000) scale(0.100000,-0.100000)"
fill="#currentColor" stroke="none">
<path d="M1184 2459 c-46 -17 -124 -81 -124 -100 0 -4 -37 -25 -82 -48 -151
-73 -265 -188 -333 -336 -45 -97 -62 -178 -70 -330 -13 -281 -78 -474 -242
-727 -36 -57 -72 -123 -80 -147 -23 -79 13 -157 91 -192 39 -18 86 -19 931
-19 574 0 903 4 927 10 45 13 94 66 108 118 14 56 -4 108 -83 230 -168 259
-225 434 -246 757 -11 161 -29 234 -82 335 -70 132 -174 232 -314 300 -49 24
-87 51 -99 68 -58 88 -192 124 -302 81z"/>
<path d="M895 378 c34 -114 115 -210 219 -259 221 -104 480 17 551 259 l6 22
-391 0 -391 0 6 -22z"/>
</g>
</svg>
