<svg width="22" height="16" viewBox="0 0 22 16" fill="none" xmlns="http://www.w3.org/2000/svg">
<path d="M1.9095 9.17176C1.56793 8.42865 1.56793 7.57136 1.9095 6.82824C3.4906 3.38843 6.96659 1 11.0004 1C15.0343 1 18.5102 3.38843 20.0913 6.82824C20.4329 7.57136 20.4329 8.42865 20.0913 9.17176C18.5102 12.6116 15.0343 15 11.0004 15C6.96659 15 3.4906 12.6116 1.9095 9.17176Z" stroke="currentColor" stroke-width="2"/>
<path d="M14.0004 8C14.0004 9.65685 12.6573 11 11.0004 11C9.34357 11 8.00042 9.65685 8.00042 8C8.00042 6.34315 9.34357 5 11.0004 5C12.6573 5 14.0004 6.34315 14.0004 8Z" stroke="currentColor" stroke-width="2"/>
</svg>
