<?xml version="1.0" standalone="no"?>
<!DOCTYPE svg PUBLIC "-//W3C//DTD SVG 20010904//EN"
 "http://www.w3.org/TR/2001/REC-SVG-20010904/DTD/svg10.dtd">
<svg version="1.0" xmlns="http://www.w3.org/2000/svg"
 width="256.000000pt" height="256.000000pt" viewBox="0 0 256.000000 256.000000"
 preserveAspectRatio="xMidYMid meet">

<g transform="translate(0.000000,256.000000) scale(0.100000,-0.100000)"
fill="currentColor" stroke="none">
<path d="M1212 2283 c-98 -48 -227 -297 -266 -515 l-7 -38 341 0 341 0 -7 38
c-28 152 -121 371 -193 453 -67 76 -138 97 -209 62z"/>
<path d="M894 2227 c-207 -84 -390 -245 -506 -445 l-30 -52 224 0 225 0 17 83
c26 124 72 251 126 355 27 50 43 92 37 92 -7 0 -48 -15 -93 -33z"/>
<path d="M1610 2167 c54 -101 99 -228 126 -355 l17 -82 225 0 224 0 -30 52
c-116 200 -299 361 -506 445 -45 18 -86 33 -93 33 -6 0 10 -42 37 -93z"/>
<path d="M300 1576 c-5 -14 -15 -59 -23 -100 l-15 -76 53 48 c63 58 172 117
251 136 l59 14 -158 1 -157 1 -10 -24z"/>
<path d="M916 1584 c-4 -9 -5 -18 -4 -19 2 -1 32 -17 67 -35 173 -91 286 -273
298 -477 l6 -93 178 0 179 0 7 28 c10 35 10 549 0 585 l-7 27 -359 0 c-324 0
-359 -2 -365 -16z"/>
<path d="M1781 1528 c4 -40 8 -152 8 -248 0 -96 -4 -208 -8 -248 l-7 -72 241
2 240 3 19 70 c28 101 28 389 0 490 l-19 70 -240 3 -241 2 7 -72z"/>
<path d="M590 1456 c-152 -44 -260 -147 -310 -297 -18 -53 -21 -80 -18 -154 6
-106 30 -176 86 -250 81 -107 191 -165 329 -173 95 -5 153 7 237 49 l59 30
172 -170 c186 -186 204 -196 244 -145 12 15 21 34 21 42 0 9 -78 95 -173 191
l-173 176 32 59 c127 234 16 530 -234 627 -70 27 -206 35 -272 15z m235 -137
c65 -24 133 -88 167 -156 31 -64 33 -218 4 -273 -38 -71 -86 -119 -153 -152
-56 -27 -77 -32 -137 -32 -127 0 -231 65 -288 182 -27 55 -32 76 -32 136 0
139 82 256 211 302 58 20 163 17 228 -7z"/>
<path d="M1238 805 c-11 -24 -4 -32 128 -168 76 -78 142 -143 146 -145 14 -7
107 278 108 331 0 4 -83 7 -185 7 l-185 0 -12 -25z"/>
<path d="M1736 748 c-27 -127 -72 -254 -126 -355 -27 -51 -43 -93 -37 -93 27
1 180 70 250 113 133 84 268 225 352 370 l27 47 -224 0 -225 0 -17 -82z"/>
</g>
</svg>
