<?xml version="1.0" standalone="no"?>
<!DOCTYPE svg PUBLIC "-//W3C//DTD SVG 20010904//EN"
 "http://www.w3.org/TR/2001/REC-SVG-20010904/DTD/svg10.dtd">
<svg version="1.0" xmlns="http://www.w3.org/2000/svg"
 width="256.000000pt" height="256.000000pt" viewBox="0 0 256.000000 256.000000"
 preserveAspectRatio="xMidYMid meet">

<g transform="translate(0.000000,256.000000) scale(0.100000,-0.100000)"
fill="currentColor" stroke="none">
<path d="M1604 2336 c-42 -19 -64 -53 -64 -100 0 -37 8 -47 117 -158 l118
-119 -135 -132 c-329 -323 -700 -534 -1085 -617 -54 -11 -166 -27 -249 -34
-143 -12 -150 -14 -172 -40 -17 -19 -24 -40 -24 -67 0 -108 49 -122 350 -99
635 48 1137 251 1528 615 l84 78 101 -100 c56 -56 113 -106 126 -113 35 -18
86 -4 115 31 l26 31 0 392 0 393 -26 24 -26 24 -376 2 c-303 2 -383 0 -408
-11z"/>
<path d="M1945 1261 c-51 -23 -101 -74 -117 -120 -10 -27 -13 -131 -13 -401 0
-355 1 -366 22 -405 24 -46 54 -75 103 -101 30 -16 58 -19 195 -19 157 0 161
0 208 28 26 15 60 47 75 69 l27 42 3 375 c3 424 2 432 -68 495 -53 47 -92 56
-255 56 -114 0 -147 -4 -180 -19z"/>
<path d="M1085 831 c-51 -23 -101 -79 -114 -128 -6 -21 -11 -101 -11 -178 0
-157 11 -195 70 -252 51 -50 87 -58 250 -58 162 0 199 9 249 57 59 58 65 79
69 239 4 167 -5 213 -51 266 -55 63 -91 73 -267 73 -129 0 -162 -4 -195 -19z"/>
<path d="M246 625 c-87 -31 -142 -121 -134 -219 6 -70 42 -126 105 -163 47
-28 51 -28 208 -28 171 0 195 6 253 59 84 75 86 220 6 300 -56 56 -94 66 -254
65 -97 0 -158 -4 -184 -14z"/>
</g>
</svg>
