<?xml version="1.0" standalone="no"?>
<!DOCTYPE svg PUBLIC "-//W3C//DTD SVG 20010904//EN"
 "http://www.w3.org/TR/2001/REC-SVG-20010904/DTD/svg10.dtd">
<svg version="1.0" xmlns="http://www.w3.org/2000/svg"
 width="256.000000pt" height="256.000000pt" viewBox="0 0 256.000000 256.000000"
 preserveAspectRatio="xMidYMid meet">

<g transform="translate(0.000000,256.000000) scale(0.100000,-0.100000)"
fill="currentColor" stroke="none">
<path d="M1115 2549 c-219 -30 -446 -125 -621 -259 -84 -66 -220 -213 -278
-302 -149 -230 -210 -436 -210 -708 0 -357 120 -649 373 -901 252 -253 544
-373 901 -373 357 0 649 120 901 373 253 252 373 544 373 901 0 357 -120 649
-373 901 -184 185 -387 296 -636 350 -106 23 -328 32 -430 18z m347 -300 c247
-43 495 -206 636 -419 280 -422 199 -986 -186 -1306 -343 -284 -811 -306
-1191 -56 -73 48 -206 182 -256 257 -281 427 -205 988 176 1305 234 194 522
272 821 219z"/>
<path d="M1130 2066 l0 -94 -52 -12 c-138 -29 -279 -133 -333 -245 -26 -53
-29 -71 -30 -155 0 -84 3 -102 28 -152 49 -99 151 -170 294 -205 38 -9 74 -17
81 -19 9 -3 12 -43 12 -159 0 -85 -3 -155 -7 -155 -19 1 -88 47 -106 71 -11
15 -28 51 -37 80 l-19 54 -135 3 c-156 3 -147 9 -121 -93 45 -171 182 -308
365 -366 l55 -17 3 -96 3 -96 129 0 130 0 0 94 0 93 58 12 c146 29 296 140
358 266 26 54 29 70 29 160 0 89 -3 106 -28 157 -33 66 -95 125 -170 161 -49
23 -159 53 -217 59 l-25 3 -3 143 c-2 133 -1 142 16 142 48 0 113 -73 136
-152 5 -16 20 -18 134 -18 71 0 131 2 134 5 12 12 -14 124 -42 182 -57 116
-189 215 -325 243 l-55 11 0 95 0 94 -130 0 -130 0 0 -94z m0 -486 c0 -66 -3
-120 -7 -120 -61 1 -133 59 -133 108 0 40 34 88 77 111 63 33 63 34 63 -99z
m336 -455 c142 -42 140 -191 -4 -240 -75 -25 -72 -30 -72 120 0 151 -4 144 76
120z"/>
</g>
</svg>
